<!-- Generated by IcoMoon.io -->
<svg version="1.1" xmlns="http://www.w3.org/2000/svg" width="32" height="32" viewBox="0 0 32 32">
<title>heroku</title>
<path fill="#430098" d="M27.48 0h-22.96c-1.6 0-2.88 1.28-2.88 2.88v26.24c0 1.6 1.28 2.88 2.88 2.88h22.96c1.6 0 2.88-1.28 2.88-2.88v-26.24c0-1.6-1.28-2.88-2.88-2.88zM28.76 29.12c0 0.72-0.56 1.28-1.28 1.28h-22.96c-0.72 0-1.28-0.56-1.28-1.28v-26.24c0-0.72 0.56-1.28 1.28-1.28h22.96c0.72 0 1.28 0.56 1.28 1.28v26.24zM8.84 27.2l3.6-3.2-3.6-3.2v6.4zM21.8 14.24c-0.64-0.64-1.84-1.44-3.84-1.44-2.16 0-4.4 0.56-6 1.12v-9.12h-3.2v13.84l2.24-1.040s3.68-1.68 6.88-1.68c1.6 0 2 0.88 2 1.68v9.6h3.2v-9.6c0.080-0.24 0.080-2-1.28-3.36zM17.56 10h3.2c1.44-1.68 2.16-3.36 2.4-5.2h-3.2c-0.32 1.84-1.12 3.52-2.4 5.2z"></path>
</svg>
