<!-- Generated by IcoMoon.io -->
<svg version="1.1" xmlns="http://www.w3.org/2000/svg" width="32" height="32" viewBox="0 0 32 32">
<title>document-zip</title>
<path d="M13 18.050v-1.050h-1v-1h1v-1h-1v-1h1v-1h-1v-1h1v-1h-1v-1h1v-1h-1v-1h1v-1h-1v-1h1v-1h-1v-1h1v-1h-3.991c-1.109 0-2.009 0.898-2.009 2.007v22.985c0 1.109 0.891 2.007 1.997 2.007h15.005c1.103 0 1.997-0.891 1.997-1.997v-17.003h-4.994c-1.108 0-2.006-0.887-2.006-1.998v-6.002h-4v1h-1v1h1v1h-1v1h1v1h-1v1h1v1h-1v1h1v1h-1v1h1v1h-1v1h1v1h-1v2.049c1.147 0.231 2 1.24 2 2.451 0 1.39-1.119 2.5-2.5 2.5-1.39 0-2.5-1.119-2.5-2.5 0-1.218 0.859-2.22 2-2.45v0 0zM20 3v5.997c0 0.554 0.451 1.003 0.991 1.003h5.009l-6-7zM13.5 19c-0.828 0-1.5 0.666-1.5 1.5 0 0.828 0.666 1.5 1.5 1.5 0.828 0 1.5-0.666 1.5-1.5 0-0.828-0.666-1.5-1.5-1.5v0z"></path>
</svg>
